<svg xmlns="http://www.w3.org/2000/svg" viewBox="0 0 64 64"><defs><linearGradient id="cup-fill" x2="0%" y2="100%"><stop stop-color="#ffadff" /><stop offset=".5" stop-color="#ed33ff" /><stop offset="1" stop-color="#9f07eb" /></linearGradient></defs><path d="M17 10H7v9c0 10 6 14 14 14m26-23h10v9c0 10-6 14-14 14" fill="none" stroke="#fa8aff" stroke-width="5" /><path d="M17 7h30v19c0 10-6 17-15 17S17 36 17 26Z" fill="url(#cup-fill)" stroke="#ffbaff" stroke-width="1.5" /><path d="m32 14 3 6 7 1-5 5 1 7-6-3-6 3 1-7-5-5 7-1Z" fill="#7e05a8" /><path d="M32 42v11m-10 4h20m-5-4H27" stroke="#f478ff" stroke-width="5" stroke-linecap="round" /></svg>
